<svg width="25" height="25" viewBox="0 0 25 25" fill="none" xmlns="http://www.w3.org/2000/svg">
<path d="M14.7743 19.1783C14.9643 19.1783 15.1543 19.1083 15.3043 18.9583L21.3743 12.8883C21.6643 12.5983 21.6643 12.1183 21.3743 11.8283L15.3043 5.75827C15.0143 5.46827 14.5343 5.46827 14.2443 5.75827C13.9543 6.04827 13.9543 6.52827 14.2443 6.81827L19.7843 12.3583L14.2443 17.8983C13.9543 18.1883 13.9543 18.6683 14.2443 18.9583C14.3843 19.1083 14.5843 19.1783 14.7743 19.1783Z" fill="white"/>
<path d="M3.84432 13.1082H20.6743C21.0843 13.1082 21.4243 12.7682 21.4243 12.3582C21.4243 11.9482 21.0843 11.6082 20.6743 11.6082H3.84432C3.43432 11.6082 3.09432 11.9482 3.09432 12.3582C3.09432 12.7682 3.43432 13.1082 3.84432 13.1082Z" fill="white"/>
</svg>
